PathFileType	3	(X/Y/Z)	E:\ViconData\BIOM9541 2025\Week 7\Wed1100\Hanif 90 squat 5 Squat 01.trc
DataRate	CameraRate	NumFrames	NumMarkers	Units	OrigDataRate	OrigDataStartFrame	OrigNumFrames
200.0	200.0	15	19	mm	200.0	1	1853	
Frame#	Time	C7			CLAV			RBAK			LASI			RASI			LPSI			RPSI			LTHI			LKNE			LTIB			LANK			LHEE			LTOE			RTHI			RKNE			RTIB			RANK			RHEE			RTOE			
		X1	Y1	Z1	X2	Y2	Z2	X3	Y3	Z3	X4	Y4	Z4	X5	Y5	Z5	X6	Y6	Z6	X7	Y7	Z7	X8	Y8	Z8	X9	Y9	Z9	X10	Y10	Z10	X11	Y11	Z11	X12	Y12	Z12	X13	Y13	Z13	X14	Y14	Z14	X15	Y15	Z15	X16	Y16	Z16	X17	Y17	Z17	X18	Y18	Z18	X19	Y19	Z19	
1	0	344.96024	1314.4592	-1201.3278	193.5174	1246.9165	-1196.0001	359.34085	1227.7423	-1341.6597	188.23534	879.02856	-1067.8873	176.74023	888.25055	-1331.6107	357.10474	935.51752	-1161.0129	354.50806	933.09644	-1235.7379	252.1004	551.73053	-999.71429	279.17392	416.81549	-1004.291	303.8887	219.53612	-965.86176	310.33368	62.046127	-971.16962	333.15475	46.933357	-1027.9838	162.01215	37.492401	-948.50781	236.47504	726.03998	-1395.318	280.40234	418.93893	-1405.1573	295.94745	333.46021	-1431.0891	306.21359	72.483269	-1430.9637	327.18317	47.428162	-1367.9988	162.71539	40.459877	-1463.5298
2	0.005	344.88947	1314.4583	-1201.3207	192.99188	1247.3071	-1196.5627	359.27209	1227.757	-1341.5553	188.05109	879.33844	-1067.3326	176.69986	888.25189	-1331.6281	357.04059	935.56097	-1160.8469	354.42072	933.03149	-1235.7202	252.05206	551.71832	-999.70776	279.15991	416.78275	-1004.3104	303.88049	219.51193	-965.86359	310.3028	62.042023	-971.15924	333.17194	46.98	-1028.0065	162.00087	37.468372	-948.48181	236.44865	726.04547	-1395.3243	280.39844	418.94092	-1405.1674	295.94318	333.48264	-1431.098	306.21475	72.524597	-1430.9814	327.15717	47.455688	-1367.9	162.71187	40.473015	-1463.5511
3	0.01	344.83878	1314.4481	-1201.3401	193.36548	1246.905	-1195.9639	358.95474	1227.027	-1344.6412	187.97536	879.33539	-1067.3947	176.68129	888.19415	-1331.6364	356.99554	935.52844	-1160.8884	354.42331	933.13324	-1235.7277	251.98943	551.72974	-999.71002	279.1272	416.80078	-1004.2842	303.86902	219.5388	-965.85883	310.32883	62.013748	-971.1814	333.1712	46.919022	-1027.9882	162.03116	37.456375	-948.50342	236.45049	726.00476	-1395.3362	280.39944	418.88623	-1405.1597	295.95407	333.42377	-1431.0978	306.24719	72.461334	-1430.9751	327.17264	47.421692	-1368.0074	163.03979	39.938004	-1463.5741
4	0.015	344.76788	1314.4648	-1201.338	193.2951	1246.9481	-1196.0249	358.90701	1227.113	-1344.6218	188.01382	879.00128	-1067.9651	176.64024	888.16412	-1331.6239	356.98575	935.48389	-1161.1868	354.42209	933.18976	-1235.7307	251.94815	551.77142	-999.70844	279.06528	416.85809	-1004.2797	303.83771	219.56825	-965.87964	310.35837	62.044479	-971.20807	333.1611	46.861507	-1027.9744	162.01547	37.45401	-948.48273	236.42728	725.95154	-1395.3408	280.37784	418.83936	-1405.1658	295.96039	333.36908	-1431.1023	306.25449	72.388054	-1430.976	327.20728	47.387646	-1368.1208	163.05389	39.888271	-1463.5687
5	0.02	344.69702	1314.4487	-1201.3738	193.19789	1246.9674	-1195.9918	358.80154	1227.1896	-1344.5653	187.93591	878.96997	-1067.9829	176.55861	888.12579	-1331.6301	356.93307	935.46722	-1161.2375	354.37076	933.19983	-1235.7715	251.91786	551.73657	-999.74261	279.04431	416.84344	-1004.3163	303.81696	219.5529	-965.85492	310.36432	62.028248	-971.21405	333.17828	46.875904	-1028.0123	162.00105	37.459484	-948.474	236.38972	725.93872	-1395.3507	280.34369	418.8251	-1405.1698	295.92242	333.36652	-1431.1041	306.24692	72.363419	-1430.9706	327.22183	47.336464	-1368.173	163.02261	39.892155	-1463.5459
6	0.025	344.62622	1314.4465	-1201.3683	193.1526	1247.0067	-1195.8406	358.68961	1227.2881	-1344.4978	187.89456	878.93915	-1068.0221	176.481	888.16675	-1331.6578	356.86862	935.51056	-1161.2229	354.31955	933.17078	-1235.8074	251.88437	551.70917	-999.75659	279.02328	416.79105	-1004.3396	303.79364	219.54121	-965.82935	310.35535	62.04314	-971.20355	333.17654	46.918247	-1028.0161	162.0041	37.481781	-948.45551	236.34023	725.98749	-1395.3628	280.30173	418.87759	-1405.1804	295.89117	333.40503	-1431.108	306.21481	72.416344	-1430.9561	327.20682	47.342007	-1368.1105	163.00087	39.942123	-1463.5138
7	0.03	344.5957	1314.481	-1201.3884	193.08293	1247.0498	-1195.9041	358.61252	1227.3251	-1344.5481	187.82182	878.87427	-1068.0503	176.42728	888.23425	-1331.6619	356.78918	935.58063	-1160.954	354.24438	933.10052	-1235.8262	251.84087	551.67627	-999.75165	278.98062	416.76556	-1004.314	303.79565	219.50981	-965.79779	310.34796	62.041065	-971.16638	333.22394	47.012062	-1028.0408	161.99657	37.487541	-948.43335	236.29916	726.05963	-1395.3656	280.28223	418.93451	-1405.1776	295.88641	333.48187	-1431.1144	306.22064	72.491882	-1430.9476	327.18839	47.376339	-1368.0082	163.01447	39.995201	-1463.5077
8	0.035	344.5451	1314.4805	-1201.3849	193.03131	1247.0778	-1195.8472	358.56299	1227.3485	-1344.6111	187.76064	878.83838	-1068.0732	176.37982	888.23792	-1331.6766	356.75372	935.61761	-1160.8798	354.18213	933.07965	-1235.8549	251.7991	551.65332	-999.73834	278.97992	416.76215	-1004.3143	303.78534	219.51659	-965.76147	310.35654	62.035824	-971.16766	333.25415	47.028255	-1028.0718	162.0349	37.477772	-948.43237	236.28613	726.05981	-1395.3877	280.29068	418.94022	-1405.201	295.88712	333.50726	-1431.1324	306.2515	72.507904	-1430.9642	327.15402	47.419147	-1367.9166	163.04013	39.975925	-1463.5068
9	0.04	344.51379	1314.4314	-1201.4327	192.96298	1247.0903	-1196.0281	358.52606	1227.3063	-1344.6873	187.70377	878.87445	-1068.0623	176.34154	888.17828	-1331.6736	356.72565	935.59473	-1161.0045	354.15845	933.10712	-1235.8878	251.778	551.68225	-999.72632	278.93524	416.79803	-1004.2974	303.77267	219.53438	-965.7356	310.39896	62.019119	-971.20624	333.28012	46.977169	-1028.095	162.05164	37.447636	-948.43335	236.26886	726.01599	-1395.395	280.29758	418.90549	-1405.2264	295.90353	333.4444	-1431.1271	306.29019	72.44162	-1430.9661	327.17114	47.383263	-1367.9752	163.07365	39.915527	-1463.5076
10	0.045	344.46939	1314.3959	-1201.452	192.89529	1247.1211	-1196.0332	358.43887	1227.2759	-1344.7035	187.64909	878.8363	-1068.0725	176.30472	888.09393	-1331.6646	356.67178	935.60022	-1161.0839	354.14084	933.11749	-1235.9254	251.74129	551.68744	-999.724	278.92261	416.80139	-1004.307	303.76208	219.54796	-965.73004	310.41751	62.009335	-971.19513	333.29672	46.933727	-1028.0999	162.06622	37.425579	-948.44751	236.25011	725.96759	-1395.4183	280.27502	418.86676	-1405.2312	295.89114	333.38312	-1431.1322	306.29825	72.383553	-1430.9839	327.18744	47.363373	-1368.043	163.08437	39.84753	-1463.4941
11	0.05	344.40338	1314.3806	-1201.4723	192.66782	1247.4716	-1196.0702	358.36331	1227.2725	-1344.7526	187.61911	878.78131	-1068.1147	176.19936	888.10791	-1331.6646	356.62494	935.61023	-1161.0231	354.0712	933.11493	-1235.923	251.75807	551.65985	-999.76715	278.92517	416.77969	-1004.3299	303.7536	219.51453	-965.70801	310.43201	62.007801	-971.22937	333.31284	46.974178	-1028.1532	162.10324	37.411682	-948.46832	236.16846	725.99139	-1395.4286	280.23889	418.87061	-1405.2332	295.85535	333.39755	-1431.1461	306.26642	72.41626	-1430.9967	327.16693	47.418587	-1367.9655	163.0686	39.852749	-1463.4823
12	0.055	344.34946	1314.4044	-1201.4562	192.80254	1247.2001	-1196.0933	358.25351	1227.2583	-1344.7745	187.5526	878.73743	-1068.1224	176.11037	888.16669	-1331.6528	356.52554	935.71381	-1160.8583	353.94797	932.96344	-1235.9327	251.7365	551.58881	-999.80389	278.9357	416.73926	-1004.3699	303.76645	219.48479	-965.72595	310.39752	62.016651	-971.20013	333.30154	47.064205	-1028.1561	162.07788	37.46085	-948.45129	236.104	726.05188	-1395.4532	280.19617	418.95096	-1405.2394	295.81433	333.47348	-1431.1489	306.25195	72.503029	-1430.9838	327.11179	47.44426	-1367.8632	163.07465	39.891441	-1463.457
13	0.06	344.29721	1314.4016	-1201.443	192.76964	1247.2448	-1196.0656	358.1676	1227.2715	-1344.7827	187.50917	878.68408	-1068.1598	176.02962	888.18964	-1331.6498	356.47354	935.74408	-1160.7991	353.87299	932.94562	-1235.9525	251.70168	551.59052	-999.79407	278.88361	416.71707	-1004.381	303.75067	219.47563	-965.69312	310.39163	62.007763	-971.18335	333.31097	47.118416	-1028.1803	162.0596	37.46413	-948.41675	236.07233	726.04327	-1395.4485	280.16376	419.00809	-1405.2394	295.7934	333.51483	-1431.1593	306.24146	72.536842	-1430.9806	327.09863	47.474361	-1367.8466	163.0695	39.935684	-1463.472
14	0.065	344.25079	1314.3942	-1201.4631	192.735	1247.2883	-1196.1346	358.13318	1227.2977	-1344.7728	187.46051	878.70184	-1068.1591	175.97263	888.14789	-1331.6193	356.46497	935.74811	-1160.99	353.84079	932.96051	-1236.004	251.66434	551.62433	-999.78906	278.87589	416.73737	-1004.3933	303.72412	219.49979	-965.68646	310.42062	61.994671	-971.21875	333.37616	47.124886	-1028.2495	162.08073	37.473	-948.45886	235.82217	725.92523	-1395.6099	280.16708	418.94858	-1405.2394	295.81293	333.46909	-1431.1631	306.23553	72.541344	-1430.9626	327.13281	47.428818	-1367.947	163.09703	39.917122	-1463.5151
15	0.07	344.2218	1314.4281	-1201.4382	192.68285	1247.3173	-1196.2458	358.12067	1227.2412	-1344.8353	187.42015	878.76129	-1068.13	175.9386	888.06274	-1331.5839	356.42935	935.70349	-1161.1748	353.91055	933.11639	-1236.0927	251.66893	551.65692	-999.8017	278.87857	416.78943	-1004.3967	303.71786	219.53502	-965.69543	310.45865	61.994263	-971.23004	333.39536	47.020638	-1028.2488	162.08746	37.437332	-948.45099	235.98438	726.00427	-1395.4635	280.17908	418.87769	-1405.2694	295.82404	333.40854	-1431.1715	306.31955	72.428955	-1431.0073	327.17044	47.379738	-1368.0453	163.14214	39.844147	-1463.5508
